<svg xmlns="http://www.w3.org/2000/svg" viewBox="0 0 256 256" fill="none">
  <title>AIvalid Logo (Dark)</title>
  <g stroke="#ffffff" stroke-width="16" stroke-linecap="round" stroke-linejoin="round">
    <!-- Wings -->
    <path d="M96 78L60 56L16 62L44 78L26 90L60 104L40 118L84 124L96 78Z" />
    <g transform="translate(256 0) scale(-1 1)">
      <path d="M96 78L60 56L16 62L44 78L26 90L60 104L40 118L84 124L96 78Z" />
    </g>

    <!-- Wing details -->
    <path d="M88 88L58 74L30 86" />
    <path d="M96 100L64 88L38 104" />
    <path d="M108 112L78 102L52 120" />
    <g transform="translate(256 0) scale(-1 1)">
      <path d="M88 88L58 74L30 86" />
      <path d="M96 100L64 88L38 104" />
      <path d="M108 112L78 102L52 120" />
    </g>

    <!-- Center chevron -->
    <path d="M96 78L128 102L160 78" />

    <!-- Circuit lines -->
    <path d="M128 102V200" />
    <path d="M118 112V174" />
    <path d="M138 112V174" />
    <path d="M118 140L72 152" />
    <path d="M138 140L184 152" />
    <path d="M118 174L96 168" />
    <path d="M138 174L160 168" />
  </g>

  <!-- Nodes -->
  <g stroke="#ff0000" stroke-width="16" fill="none">
    <circle cx="72" cy="152" r="14" />
    <circle cx="96" cy="168" r="14" />
    <circle cx="160" cy="168" r="14" />
    <circle cx="184" cy="152" r="14" />
    <circle cx="128" cy="200" r="14" />
  </g>
</svg>
