<svg xmlns="http://www.w3.org/2000/svg" viewBox="0 0 256 256">
  <title>AIvalid</title>
  <defs>
    <g id="aivalid-wing">
      <path
        d="M128 110 L150 86 L196 72 L236 60 L248 64 L236 74 L250 86 L232 92 L184 104 Z"
        fill="#D7C2AC"
        stroke="#F9FAFB"
        stroke-width="10"
      />
      <path
        d="M128 110 L150 86 L196 72 L236 60 L248 64 L236 74 L250 86 L232 92 L184 104 Z"
        stroke="#0B0D10"
        stroke-width="6"
      />
      <path
        d="M132 110 L152 92 L198 78 L230 68 L238 72 L228 80 L238 86 L222 88 L182 104 Z"
        fill="#1F2C63"
        stroke="#0B0D10"
        stroke-width="4"
      />
      <path
        d="M132 112 L150 102 L188 92 L212 84 L218 88 L206 96 L184 110 Z"
        fill="#C4167A"
        stroke="#0B0D10"
        stroke-width="4"
      />
    </g>
  </defs>
  <g fill="none" stroke-linecap="round" stroke-linejoin="round">
    <!-- Wings -->
    <use href="#aivalid-wing" />
    <use href="#aivalid-wing" transform="translate(256 0) scale(-1 1)" />

    <!-- Center cap -->
    <path
      d="M128 126 L110 108 L128 92 L146 108 Z"
      fill="#D7C2AC"
      stroke="#F9FAFB"
      stroke-width="10"
    />
    <path d="M128 126 L110 108 L128 92 L146 108 Z" stroke="#0B0D10" stroke-width="6" />

    <!-- Circuits (double-stroke for crisp outline) -->
    <g>
      <g stroke="#0B0D10" stroke-width="10">
        <path d="M128 118 V170" />
        <path d="M128 134 L112 150 V166" />
        <path d="M128 134 L144 150 V166" />
        <path d="M112 142 H84" />
        <path d="M144 142 H172" />
        <path d="M112 166 H100" />
        <path d="M144 166 H156" />
      </g>
      <g stroke="#F9FAFB" stroke-width="6">
        <path d="M128 118 V170" />
        <path d="M128 134 L112 150 V166" />
        <path d="M128 134 L144 150 V166" />
        <path d="M112 142 H84" />
        <path d="M144 142 H172" />
        <path d="M112 166 H100" />
        <path d="M144 166 H156" />
      </g>
    </g>

    <!-- Nodes -->
    <g>
      <g stroke="#0B0D10" stroke-width="6">
        <circle cx="84" cy="142" r="10" fill="#C4167A" />
        <circle cx="172" cy="142" r="10" fill="#C4167A" />
        <circle cx="100" cy="166" r="10" fill="#1F2C63" />
        <circle cx="156" cy="166" r="10" fill="#1F2C63" />
        <circle cx="128" cy="188" r="12" fill="#C4167A" />
      </g>
      <g stroke="#F9FAFB" stroke-width="3">
        <circle cx="84" cy="142" r="10" fill="none" />
        <circle cx="172" cy="142" r="10" fill="none" />
        <circle cx="100" cy="166" r="10" fill="none" />
        <circle cx="156" cy="166" r="10" fill="none" />
        <circle cx="128" cy="188" r="12" fill="none" />
      </g>
    </g>
  </g>
</svg>
