<?xml version="1.0" encoding="UTF-8"?>
<!-- Generator: visioncortex VTracer 0.6.4 -->
<svg version="1.1" xmlns="http://www.w3.org/2000/svg" width="1080" height="1174">
<path d="M0 0 C1.98 0.5 1.98 0.5 4 1 C4.1 1.7 4.2 2.4 4.3 3.12 C5.55 11.39 7.58 19.26 10 27.25 C10.2 27.9 10.39 28.55 10.59 29.22 C14.21 41.18 18.74 52.63 23.73 64.08 C31.9 82.89 38.4 102.03 44.29 121.64 C45.33 125.08 46.37 128.52 47.42 131.96 C48.53 135.62 49.64 139.27 50.75 142.93 C51.29 144.72 51.83 146.5 52.37 148.28 C53.13 150.78 53.88 153.29 54.63 155.79 C54.85 156.53 55.08 157.27 55.31 158.04 C61.18 177.72 57.06 193.66 49 212 C49.33 211.67 49.66 211.34 50 211 C51.37 210.69 52.74 210.43 54.12 210.19 C58.03 209.45 61.83 208.51 65.66 207.43 C72.29 205.56 78.06 204.14 84.97 205.34 C89.67 206.14 92.59 205.79 96.95 203.79 C102.66 201.59 108.83 201.75 114.88 201.69 C115.73 201.66 116.59 201.63 117.48 201.6 C123.46 201.54 128.07 202.47 133 206 C133.46 206.69 133.92 207.39 134.4 208.11 C137.2 211.42 141.5 211.55 145.62 212.31 C146.51 212.49 147.39 212.67 148.3 212.86 C151.64 213.53 151.64 213.53 155 214 C155.33 213.67 155.66 213.34 156 213 C158.08 212.85 160.17 212.78 162.25 212.75 C163.96 212.71 163.96 212.71 165.7 212.67 C169.42 213.04 171.09 213.68 174 216 C174.61 216.99 175.23 217.97 175.86 218.99 C178.46 222.64 181.1 223.77 185.19 225.19 C185.85 225.44 186.52 225.69 187.21 225.94 C191.5 227.53 195.85 228.95 200.21 230.36 C203.66 231.59 206.27 233.24 208.8 235.88 C211.17 238.17 213.59 239.8 216.38 241.56 C226.72 248.36 236.26 256.08 245.3 264.52 C247.39 266.43 249.49 268.28 251.64 270.12 C256.46 274.33 260.99 278.8 265.51 283.32 C266.93 284.74 268.35 286.15 269.78 287.55 C275.96 293.72 281.56 300.17 287 307 C288.54 308.82 290.08 310.63 291.62 312.44 C301.16 323.88 310.06 335.89 318.38 348.25 C318.81 348.9 319.25 349.54 319.7 350.21 C328.24 363.11 334.94 376.77 341.06 390.94 C342.38 393.97 343.71 397 345.04 400.03 C345.36 400.77 345.68 401.5 346.01 402.26 C348.39 407.66 350.82 413.03 353.31 418.38 C353.63 419.09 353.96 419.79 354.3 420.52 C355.92 423.98 357.62 427.02 360 430 C361.01 432.05 361.98 434.11 362.94 436.19 C367.87 446.43 374.8 455.37 381.57 464.45 C387.81 472.89 393.03 481.76 398.14 490.92 C399.09 492.62 400.05 494.31 401 496 C401.51 496.92 402.02 497.84 402.55 498.79 C403.07 499.69 403.58 500.59 404.11 501.52 C404.57 502.33 405.03 503.14 405.5 503.98 C407.15 506.2 408.46 506.99 411 508 C411.35 507.49 411.7 506.99 412.06 506.47 C412.51 505.82 412.97 505.17 413.44 504.5 C413.89 503.85 414.34 503.2 414.81 502.53 C415.2 502.03 415.59 501.52 416 501 C416.33 501 416.66 501 417 501 C416.91 502.61 416.8 504.21 416.69 505.81 C416.6 507.15 416.6 507.15 416.51 508.52 C416 511 416 511 414.96 512.89 C412.25 514.42 409.95 514.2 406.94 513.68 C403.56 512.49 402.45 510.21 400.69 507.19 C400.32 506.58 399.96 505.97 399.58 505.34 C395.89 499.07 392.49 492.62 389.03 486.21 C385.49 479.71 381.6 473.81 377 468 C376 466.67 375 465.34 374 464 C374.13 464.79 374.27 465.58 374.4 466.39 C377.36 484.65 377.62 502.59 376.18 521 C376.04 522.69 376.04 522.69 375.91 524.41 C375 535.64 373.73 546.83 372.4 558.02 C369.64 581.22 369.64 581.22 367.62 604.5 C367.55 605.52 367.48 606.54 367.41 607.6 C364.98 646.36 372.54 682.37 398.32 712.16 C401.07 715.07 403.88 717.51 407 720 C408.32 718.35 409.64 716.7 411 715 C414.15 715.61 416.19 716.64 418.75 718.56 C419.67 719.25 419.67 719.25 420.61 719.94 C421.07 720.29 421.53 720.64 422 721 C421.53 725.8 420.73 729.02 418 733 C417.67 733.66 417.34 734.32 417 735 C416.34 735 415.68 735 415 735 C415 735.66 415 736.32 415 737 C411.68 737.23 409.32 737.12 406.19 735.94 C404 734 404 734 403.12 730.44 C403 727 403 727 404 725 C403.54 724.62 403.08 724.24 402.6 723.86 C378.41 703.45 366.45 675.02 363 644 C362.47 637.09 362.47 630.18 362.5 623.25 C362.5 622.3 362.5 621.35 362.5 620.37 C362.56 598.23 364.98 576.43 367.7 554.49 C368.43 548.48 369.09 542.46 369.75 536.44 C369.87 535.37 369.99 534.3 370.11 533.2 C373.38 503.63 375.12 470.88 360 444 C359.81 451.59 359.81 459.02 360.72 466.55 C362.11 478.26 362.23 489.92 362.25 501.69 C362.26 502.99 362.26 502.99 362.27 504.32 C362.34 519.96 361.49 535.43 357.81 550.69 C357.6 551.6 357.38 552.51 357.16 553.44 C352.37 573.22 345.52 591.78 337.52 610.45 C322.68 645.22 311.31 680.67 325.23 717.85 C326 720 326 720 326 722 C326.72 721.65 327.44 721.3 328.19 720.94 C331 720 331 720 336 721 C336.66 724.63 337.32 728.26 338 732 C338.99 732.33 339.98 732.66 341 733 C340.86 734.83 340.86 734.83 340 737 C337.45 738.45 337.45 738.45 334.25 739.69 C332.68 740.31 332.68 740.31 331.08 740.95 C328.38 741.87 325.81 742.53 323 743 C318.27 737.42 317.16 733.28 317 726 C318.65 725.67 320.3 725.34 322 725 C321.67 724.16 321.35 723.32 321.01 722.46 C305.54 679.87 318.27 641.19 335.2 601.45 C347.17 573.33 357.13 543.53 357.17 512.64 C357.17 511.76 357.17 510.89 357.18 509.99 C357.18 508.15 357.19 506.31 357.19 504.48 C357.19 501.73 357.21 498.99 357.22 496.25 C357.25 486.39 356.8 476.77 355.69 466.98 C354.82 459.02 354.98 451.22 355.43 443.23 C355.65 435.05 353.5 429.8 349 423 C348.67 423 348.34 423 348 423 C347.53 426.52 347.08 430.04 346.62 433.56 C346.49 434.64 346.35 435.72 346.2 436.83 C345.4 443.27 344.75 449.69 344.28 456.15 C342.01 486.72 327 511.16 310 536 C297.54 552.08 297.54 552.08 294 571 C296.7 578.94 301.9 585.34 308 591 C308.99 591.33 309.98 591.66 311 592 C311.66 590.68 312.32 589.36 313 588 C314.32 588 315.64 588 317 588 C317.87 589.58 317.87 589.58 318.75 591.19 C320.12 593.62 321.38 595.44 323.25 597.56 C325.5 600.7 325.62 602.21 325 606 C323 609.37 323 609.37 321 612 C315.27 611.77 312.68 610.36 308.58 606.38 C306.93 604.76 306.93 604.76 304 604 C304.16 603.05 304.33 602.1 304.5 601.12 C305.05 598.2 305.05 598.2 305 596 C303.85 594.81 302.69 593.63 301.5 592.48 C294.59 585.66 288.96 577.96 288.69 567.94 C288.93 552.68 300.76 538.45 309.35 526.51 C311.18 524.22 311.18 524.22 311 522 C309.36 522.15 309.36 522.15 307.69 522.31 C304 522 304 522 302.06 519.81 C300.95 516.87 300.6 515.1 301 512 C301.41 511.38 301.83 510.76 302.25 510.12 C302.5 509.42 302.75 508.72 303 508 C301.39 504.74 301.39 504.74 300.04 502.78 C297.77 498.89 297.99 495.55 298.44 491.15 C299.17 482.73 299.05 474.36 298.96 465.9 C298.91 458.6 299.18 451.41 299.76 444.12 C301.16 426.21 298.71 408.68 296 391 C295.9 390.33 295.8 389.67 295.69 388.98 C292.81 370.26 288.73 352.07 283.43 333.88 C280.97 325.34 279.31 317.17 278.55 308.3 C277.75 303.47 275.66 301.04 272 298 C271.11 297.09 270.23 296.19 269.31 295.25 C268.55 294.51 267.79 293.76 267 293 C266 292 265 291 264 290 C264.52 300.12 265.6 309.97 267.21 319.98 C267.43 321.37 267.65 322.76 267.87 324.14 C268.55 328.49 269.24 332.84 269.94 337.19 C273.37 358.69 276.58 380.04 277.68 401.81 C278.58 419.38 281.5 435.12 286.56 451.94 C291.9 469.74 298.5 494.49 290.31 512.25 C285.78 519.99 280.14 527.02 274.56 534.03 C272.36 536.81 270.24 539.65 268.12 542.5 C265.57 545.92 262.98 549.29 260.31 552.62 C254.92 559.54 250.78 566.67 248 575 C248.8 574.98 249.61 574.96 250.44 574.94 C253 575 253 575 254 576 C254.16 580.84 253.95 585.23 253 590 C251.44 590.37 249.88 590.72 248.31 591.06 C247.44 591.26 246.57 591.46 245.68 591.66 C242.82 592.02 240.76 591.77 238 591 C237 590 237 590 236.9 587.06 C236.92 585.27 236.92 585.27 236.94 583.44 C236.95 582.24 236.96 581.04 236.96 579.81 C236.98 578.88 236.99 577.95 237 577 C238.98 576.67 240.96 576.34 243 576 C243.19 574.78 243.37 573.57 243.56 572.31 C246.09 561.25 252.92 552.48 259.91 543.86 C268.04 533.81 275.61 523.24 282.81 512.5 C283.23 511.88 283.64 511.27 284.07 510.63 C291.19 499.84 288.47 484.17 286.12 471.96 C284.66 465.13 282.71 458.42 280.69 451.73 C276.13 436.37 273.61 421.18 272.87 405.2 C271.49 376.37 266.72 348 262.12 319.55 C260.71 310.8 259.48 302.1 258.74 293.27 C257.94 284.65 255.29 280.88 248.88 275.19 C248.22 274.59 247.56 273.99 246.88 273.38 C245.26 271.91 243.63 270.45 242 269 C242.23 269.69 242.46 270.37 242.69 271.08 C243.12 272.43 243.12 272.43 243.56 273.81 C244 275.15 244 275.15 244.44 276.52 C245 279 245 279 244 282 C243.88 283.45 243.8 284.91 243.75 286.37 C243.71 287.68 243.71 287.68 243.66 289.02 C243.63 289.96 243.59 290.9 243.56 291.88 C243.27 299.56 242.75 307.17 241.94 314.81 C241.1 323.05 240.72 331.14 240.93 339.42 C240.98 341.34 241.02 343.26 241.06 345.19 C241.45 365.67 243.33 383.54 250.24 402.84 C251.55 406.54 252.77 410.27 254 414 C254.6 413.67 255.2 413.34 255.81 413 C258 412 258 412 261 412 C263.63 416.5 264.77 419.78 264 425 C261.6 427.6 259.69 428.75 256.38 429.94 C254 430 254 430 252.35 428.5 C251.68 427.76 251.68 427.76 251 427 C250.48 427.51 249.96 428.01 249.43 428.53 C248.73 429.18 248.03 429.83 247.31 430.5 C246.63 431.15 245.94 431.8 245.24 432.47 C242.55 434.31 241.19 434.54 238 434 C235.87 431.06 235.87 431.06 234 428 C233.01 427.67 232.02 427.34 231 427 C231.35 423.76 231.56 422.38 234.06 420.19 C234.7 419.8 235.34 419.4 236 419 C235.43 414.47 233.62 411.42 231.25 407.56 C222.82 393.25 219.32 376.91 215 361 C213.93 361.64 212.86 362.28 211.75 362.94 C205.72 366.37 199.88 366.73 193 366 C190.04 364.94 187.71 363.64 185 362 C184.22 390.28 187.07 419.02 205.93 441.28 C210.23 445.8 214.77 448.8 221 450 C221.33 448.35 221.66 446.7 222 445 C225.3 444.67 228.6 444.34 232 444 C232.66 445.65 233.32 447.3 234 449 C234.33 448.67 234.66 448.34 235 448 C236.93 447.83 236.93 447.83 239.31 447.81 C240.09 447.8 240.87 447.78 241.68 447.77 C244.28 448.03 245.82 448.56 248 450 C250.35 454.44 251 456.89 251 462 C247.7 462 244.4 462 241 462 C240.38 463.36 240.38 463.36 239.75 464.75 C234.71 475.5 229 484.54 218 490 C208.98 493.01 199.49 491.23 190.98 487.55 C175.62 479.57 168.39 464.79 162.97 449.01 C158.95 436.2 155.45 423.23 152.2 410.2 C152.03 409.53 151.86 408.85 151.68 408.15 C147.98 393.31 144.76 378.38 141.61 363.41 C140.01 355.78 138.38 348.17 136.76 340.55 C136.6 339.79 136.44 339.04 136.27 338.26 C126.05 278.78 126.05 278.78 101 225 C100.57 224.38 100.14 223.76 99.69 223.12 C96.11 218.37 90.66 213.58 84.64 212.62 C82.23 212.59 82.23 212.59 79 213 C80.03 213.66 81.06 214.32 82.12 215 C90.38 220.95 94.62 229.65 96.75 239.44 C97.93 256.19 94.4 270.88 89.75 286.85 C88.55 291.03 87.38 295.21 86.28 299.42 C85.91 300.83 85.91 300.83 85.53 302.26 C83.08 314.93 89.86 324.55 96.55 334.65 C99.17 338.88 99.19 342.42 99.25 347.31 C99.28 348.61 99.3 349.9 99.33 351.24 C98.96 355.44 98.44 357.55 96 361 C93.32 363.07 90.47 364.69 87.5 366.31 C86.73 366.75 85.96 367.2 85.16 367.65 C82.12 369.37 79.33 370.89 76 372 C76 372.66 76 373.32 76 374 C76.66 374 77.32 374 78 374 C78.41 378.21 78.42 380.36 76.06 383.94 C71.96 386.7 68.81 386.6 64 386 C62.66 385.69 61.32 385.37 60 385 C60.49 380.07 61.2 376.15 64 372 C66 371.33 68 370.66 70 370 C72.33 368.63 74.57 367.25 76.81 365.75 C77.42 365.35 78.03 364.95 78.66 364.54 C79.87 363.74 81.09 362.93 82.3 362.13 C83.82 361.12 85.35 360.13 86.88 359.14 C87.68 358.62 88.48 358.1 89.31 357.56 C90.01 357.11 90.71 356.66 91.43 356.19 C93.15 355.07 93.15 355.07 94 353 C95.21 344.15 92.88 339.17 88 332 C81.37 321.03 78.09 311.14 81.12 298.32 C81.29 297.66 81.45 296.99 81.62 296.31 C81.8 295.6 81.97 294.88 82.15 294.14 C83.65 288.11 85.38 282.15 87.12 276.19 C91.51 261.1 95.68 244.41 87.75 229.67 C82.25 221.83 74.76 217.45 66 214 C66.35 214.68 66.7 215.35 67.06 216.05 C67.51 216.94 67.97 217.83 68.44 218.75 C68.89 219.63 69.34 220.51 69.81 221.42 C73.67 229.79 72.15 239.11 70.44 247.88 C70.26 248.78 70.09 249.68 69.91 250.6 C66.93 264.95 61.87 278.03 54.74 290.79 C52.01 295.83 50.11 300.37 49.88 306.12 C51.54 310.37 54.45 313.19 58 316 C58.99 316.33 59.98 316.66 61 317 C61.99 316.34 62.98 315.68 64 315 C67.62 314.54 69.34 314.55 72.38 316.62 C74.51 319.75 74.6 321.27 74 325 C72.25 328.12 72.25 328.12 70 331 C69.44 331.78 68.89 332.57 68.31 333.38 C64.83 335.82 61.14 335.69 57 335 C55 333 55 333 54.75 329.56 C55 326 55 326 57 323 C56.54 322.62 56.08 322.25 55.61 321.86 C49.42 316.7 45.77 313.2 44.79 304.99 C45.41 296.33 49.43 288.79 53.31 281.19 C60.15 267.37 65.26 252.4 67 237 C67.08 236.29 67.16 235.58 67.25 234.85 C67.59 229.37 65.72 225.57 63 221 C63.05 221.91 63.09 222.81 63.14 223.75 C63.37 231.6 62.99 237.21 59 244 C58.43 245.06 58.43 245.06 57.86 246.14 C54.58 251.97 50.64 257.3 46.69 262.69 C35.13 278.51 18.35 301.52 19.56 322.05 C20.45 325.98 21.81 327.46 25 330 C27.35 330.24 29.55 330.13 31.91 329.97 C34 330 34 330 36.5 331.56 C38.42 334.68 38.72 337.38 39 341 C34.54 344.45 30.43 344.58 25 344 C24 343 24 343 23.9 341.15 C23.93 339.1 23.97 337.05 24 335 C23.26 334.83 22.51 334.67 21.75 334.5 C17.63 332.25 16.33 329.43 15 325 C11 300.03 32.12 273.09 45.72 254.11 C55.16 241.3 55.16 241.3 58.41 226.16 C58.16 223.66 58.16 223.66 55.38 221.56 C52.28 220.13 49.28 218.94 46 218 C45.38 218.97 44.76 219.94 44.12 220.94 C42 224 42 224 40 225 C39.76 219.96 40.29 216.48 42.34 211.88 C42.82 210.76 43.31 209.64 43.81 208.48 C44.33 207.33 44.84 206.18 45.38 205 C51.55 191.02 55.65 179.73 51.36 164.33 C51.19 163.69 51.01 163.06 50.83 162.41 C48.29 153.32 45.55 144.28 42.81 135.25 C42.53 134.31 42.24 133.36 41.94 132.39 C35.25 110.33 28.44 88.58 19.09 67.48 C11.19 49.47 5.07 30.99 0 12 C-3.03 15.6 -5.48 19.33 -7.75 23.44 C-8.12 24.11 -8.5 24.78 -8.88 25.46 C-11.53 30.23 -14.09 35.05 -16.62 39.88 C-25.1 56.05 -34.01 71.7 -44 87 C-44.75 88.15 -44.75 88.15 -45.51 89.32 C-49.37 95.22 -53.32 101.04 -57.37 106.81 C-72.31 128.12 -86.74 150 -97 174 C-97.52 175.2 -98.05 176.41 -98.59 177.65 C-103.08 188.52 -102.09 196.06 -99.31 207.25 C-99.04 208.36 -98.76 209.48 -98.48 210.63 C-94.64 225.74 -90.08 237.44 -76.06 245.88 C-64.25 252.39 -51.66 257.6 -39.39 263.19 C-25.77 269.45 -17.88 275.77 -12 290 C-11.18 292.77 -10.88 295.22 -10.9 298.11 C-10.91 298.86 -10.91 299.62 -10.91 300.39 C-10.92 301.17 -10.93 301.95 -10.94 302.75 C-10.94 303.54 -10.95 304.34 -10.95 305.15 C-10.96 307.1 -10.98 309.05 -11 311 C-7.7 311.33 -4.4 311.66 -1 312 C-0.97 313.92 -0.95 315.83 -0.94 317.75 C-0.93 318.82 -0.91 319.88 -0.9 320.98 C-0.98 323.53 -1.25 325.58 -2 328 C-3.56 328.37 -5.12 328.72 -6.69 329.06 C-7.56 329.26 -8.43 329.46 -9.32 329.66 C-12.16 330.02 -14.25 329.71 -17 329 C-17.34 327.44 -17.67 325.88 -18 324.31 C-18.19 323.44 -18.37 322.57 -18.56 321.68 C-18.99 319.06 -19.08 316.64 -19 314 C-17.68 313.34 -16.36 312.68 -15 312 C-15.18 299.41 -16.45 287.44 -25.62 277.86 C-30.51 274.04 -36.19 271.56 -41.81 269 C-43.96 268.02 -46.09 267.01 -48.22 266 C-53.97 263.27 -59.73 260.56 -65.54 257.96 C-78.74 252.01 -91.79 244.4 -98.07 230.56 C-101.34 221.58 -103.72 212.28 -106 203 C-106.43 206.66 -106.72 210.32 -107 214 C-107.11 215.17 -107.23 216.34 -107.35 217.54 C-108.1 230.54 -102.89 239.6 -94.88 249.44 C-89.44 255.05 -82.87 258.49 -76 262 C-54.53 273.03 -54.53 273.03 -46 280 C-45.21 280.62 -44.43 281.25 -43.62 281.89 C-34.96 289.11 -27.41 298.08 -26.15 309.6 C-25.85 314.39 -25.93 319.2 -26 324 C-25.2 324.14 -24.39 324.29 -23.56 324.44 C-21 325 -21 325 -20 326 C-19.79 327.58 -19.63 329.16 -19.5 330.75 C-19.19 334.23 -18.8 337.59 -18 341 C-20.21 343.21 -21.93 344.87 -25.11 345.27 C-27.08 345.25 -29.04 345.13 -31 345 C-33.17 339.66 -34.34 333.77 -34 328 C-33.52 327.53 -33.03 327.06 -32.54 326.58 C-30.12 324.09 -30.6 321.76 -30.62 318.38 C-30.9 307.48 -33.83 301.12 -41 293 C-41.84 292.01 -41.84 292.01 -42.71 291.01 C-51.39 281.59 -62.73 275.46 -74.12 269.94 C-85.99 264.17 -96.61 258.37 -104 247 C-104 262.89 -87.56 280.66 -78 292 C-68.17 304.04 -68.17 304.04 -67 312 C-65.35 312.33 -63.7 312.66 -62 313 C-62 318.28 -62 323.56 -62 329 C-71.08 330.17 -71.08 330.17 -74 330 C-76.2 328 -76.88 326.66 -77.4 323.75 C-77.39 322.98 -77.38 322.22 -77.38 321.44 C-77.38 320.67 -77.39 319.91 -77.4 319.12 C-76.91 316.51 -76.09 315.6 -74 314 C-73.34 314 -72.68 314 -72 314 C-74.04 306.37 -77.98 301.36 -83.14 295.62 C-87.16 291.09 -90.72 286.38 -94.12 281.38 C-94.59 280.7 -95.05 280.03 -95.52 279.33 C-97.56 276.3 -99.49 273.33 -101 270 C-100.4 275.05 -99.31 279.74 -97.79 284.59 C-97.57 285.29 -97.35 285.99 -97.13 286.71 C-96.45 288.93 -95.76 291.15 -95.06 293.38 C-87.72 316.97 -87.72 316.97 -87.69 324.38 C-87.67 325.19 -87.65 326 -87.64 326.84 C-88.09 329.57 -88.91 330.23 -91 332 C-96.98 334.78 -103.54 335.78 -110 336.75 C-111.39 336.97 -111.39 336.97 -112.8 337.2 C-115.72 337.66 -118.64 338.11 -121.56 338.56 C-124.49 339.02 -127.41 339.48 -130.34 339.94 C-132.15 340.22 -133.96 340.51 -135.77 340.78 C-139.68 341.4 -143.5 342.08 -147.32 343.09 C-150.31 343.83 -152.67 344.24 -155.72 344.2 C-156.51 344.19 -157.29 344.18 -158.1 344.18 C-158.89 344.16 -159.68 344.14 -160.5 344.12 C-161.32 344.12 -162.14 344.11 -162.99 344.1 C-164.99 344.07 -167 344.04 -169 344 C-168.16 339.69 -166.2 338.01 -163 335 C-157.08 328.75 -151.41 322.41 -146.1 315.63 C-143.61 312.51 -141.03 309.47 -138.44 306.44 C-134.15 301.4 -130 296.28 -126 291 C-125.3 290.1 -124.61 289.2 -123.89 288.27 C-119.73 282.83 -115.79 277.31 -112.06 271.56 C-111.5 270.69 -111.5 270.69 -110.92 269.81 C-108.9 266.65 -106.98 263.63 -106 260 C-106.53 257.76 -106.53 257.76 -107.69 255.5 C-109.87 250.05 -110.76 244.84 -111.5 239.06 C-112.85 228.59 -114.82 218.32 -117 208 C-157.24 250.46 -182.54 303.21 -201.04 358.15 C-202.12 361.36 -203.23 364.57 -204.34 367.77 C-215.66 400.78 -225.13 434.38 -234.38 468.02 C-238.75 483.88 -243.44 499.63 -248.18 515.39 C-252.15 528.58 -256.09 541.79 -260 555 C-260.31 556.06 -260.63 557.12 -260.95 558.22 C-262.46 563.32 -263.94 568.42 -265.35 573.54 C-265.74 574.9 -266.13 576.27 -266.52 577.62 C-269.27 587.01 -269.05 592.23 -264.53 600.79 C-260.73 606.23 -256.69 610.09 -251.4 614.09 C-247.75 617 -244.95 620.41 -242 624 C-241.23 624.89 -240.45 625.78 -239.65 626.69 C-207 664.18 -207 664.18 -207 672 C-201.71 671.02 -201.71 671.02 -198.05 667.31 C-197.55 666.17 -197.05 665.04 -196.53 663.87 C-196.24 663.25 -195.96 662.63 -195.66 661.99 C-195.05 660.65 -194.45 659.31 -193.86 657.97 C-192.29 654.41 -190.64 650.89 -188.99 647.36 C-188.66 646.65 -188.33 645.94 -187.99 645.21 C-184.88 638.6 -181.32 632.33 -177.56 626.06 C-165.83 606.37 -155.03 586.54 -157.5 562.88 C-160.16 535.24 -160.16 535.24 -154 526 C-152.72 526.27 -151.44 526.54 -150.12 526.81 C-146.71 527.51 -143.31 528.11 -139.86 528.59 C-128 530.28 -115.08 532.53 -106 541 C-102.05 547.12 -102.45 554.76 -103.84 561.65 C-105.09 567.14 -106.53 572.57 -108 578 C-113.75 599.28 -117.46 618.44 -116.98 640.53 C-116.78 651.83 -117.19 661.77 -122.88 671.75 C-124.08 674.16 -124.58 676.34 -125 679 C-113.5 674.56 -102.82 669.37 -92.17 663.16 C-80.46 656.41 -68.24 650.72 -56 645 C-56.08 644.38 -56.16 643.76 -56.24 643.13 C-58.44 625.76 -59.89 608.39 -60.94 590.92 C-61.1 588.15 -61.27 585.38 -61.46 582.61 C-62.43 567.62 -63.17 552.66 -63.24 537.64 C-63.25 536.43 -63.26 535.22 -63.27 533.97 C-63.25 526.77 -62.57 520.03 -61 513 C-62.32 512.67 -63.64 512.34 -65 512 C-63.72 510.29 -62.38 508.63 -61 507 C-60.34 507 -59.68 507 -59 507 C-58.34 505.02 -57.68 503.04 -57 501 C-56.67 501.66 -56.34 502.32 -56 503 C-47.52 497.37 -39.05 491.72 -30.59 486.07 C-29.21 485.14 -27.83 484.22 -26.44 483.29 C-11.85 473.54 1.81 462.66 15.38 451.54 C19.19 448.44 23.05 445.42 27 442.5 C37.23 434.92 47.01 426.76 56.69 418.5 C57.25 418.02 57.82 417.54 58.4 417.05 C59.95 415.71 61.47 414.36 63 413 C63.97 412.16 64.94 411.31 65.94 410.44 C68.25 408.24 68.25 408.24 68.02 405.68 C67.76 404.94 67.51 404.2 67.25 403.44 C66.18 400.16 65.89 398.31 67 395 C71.17 398.95 72.76 400.97 73.44 406.75 C73.34 411.03 71.97 413.1 69.06 416.14 C65.61 419.26 61.98 422.14 58.29 424.98 C55.77 426.87 55.77 426.87 55 430 C55.85 432.15 55.85 432.15 57.19 434.44 C67.91 454.86 65.8 477.23 62.94 499.38 C62.71 501.17 62.49 502.97 62.27 504.77 C61.54 510.52 60.78 516.26 60 522 C59.87 522.99 59.73 523.98 59.6 524.99 C52.46 577.79 41.73 630.54 17.29 678.38 C6.25 700.19 -1.73 721.21 -6.3 745.16 C-6.5 746.15 -6.69 747.13 -6.89 748.15 C-7.05 749.04 -7.22 749.93 -7.39 750.84 C-8 753 -8 753 -10 755 C-10.75 727.48 -1.81 705.25 9.86 680.91 C36.79 624.69 49.06 567.12 57.04 505.66 C57.3 503.63 57.57 501.61 57.84 499.58 C59.21 489.27 60.23 479.06 60.3 468.64 C60.31 467.38 60.31 467.38 60.33 466.09 C60.24 454.97 56.42 444.63 51 435 C46.26 435 44.54 436.53 41.06 439.38 C39.9 440.3 38.74 441.22 37.58 442.14 C36.69 442.85 36.69 442.85 35.78 443.58 C32.99 445.8 30.15 447.96 27.31 450.12 C22.71 453.66 18.16 457.25 13.64 460.88 C-0.53 472.25 -14.95 483.03 -30.06 493.12 C-31.1 493.82 -32.13 494.52 -33.2 495.23 C-37.58 498.16 -41.92 501.03 -46.58 503.5 C-53.1 506.94 -53.1 506.94 -57.28 512.82 C-58 516.9 -57.98 520.88 -58 525 C-58.02 526.48 -58.02 526.48 -58.04 527.99 C-58.28 547.47 -57.54 566.77 -56.26 586.2 C-56.08 589.04 -55.9 591.89 -55.73 594.73 C-54.24 618.96 -54.24 618.96 -51 643 C-48.69 642.34 -46.38 641.68 -44 641 C-45.63 642.71 -46.87 643.93 -49 645 C-49 646.98 -49 648.96 -49 651 C-49.77 650.55 -50.54 650.1 -51.34 649.63 C-57.2 648.62 -60.77 651.86 -65.62 654.94 C-67.77 656.24 -69.91 657.54 -72.05 658.84 C-73.18 659.52 -74.31 660.2 -75.47 660.91 C-80.87 664.14 -86.4 667.13 -91.94 670.09 C-93.7 671.04 -95.45 671.99 -97.21 672.94 C-107.86 678.63 -118.18 683.67 -130.25 685.06 C-130.99 685.15 -131.73 685.24 -132.49 685.34 C-137.01 685.87 -141.45 686.3 -146 686 C-148.73 683.34 -149.91 681.36 -150.17 677.52 C-150.14 675.8 -150.07 674.08 -149.95 672.37 C-150.01 669.69 -150.74 668.32 -152 666 C-152.31 662.94 -152.31 662.94 -152 660 C-151.26 659.32 -151.26 659.32 -150.5 658.62 C-148.28 656.22 -149.02 654.04 -149.14 650.94 C-149 649 -149 649 -147.25 646.5 C-145 645 -145 645 -141 645 C-141.33 644.34 -141.66 643.68 -142 643 C-142.56 637.21 -142.56 637.21 -142 635 C-141.17 634.42 -140.33 633.83 -139.48 633.23 C-136.59 631.14 -136.59 631.14 -136.69 627.32 C-136.81 625.21 -137 623.12 -137.2 621.02 C-137.43 616.85 -137.16 615.22 -134.63 611.81 C-133.76 610.88 -132.9 609.95 -132 609 C-128.29 601.53 -126.7 593.11 -125 585 C-124.01 585 -123.02 585 -122 585 C-122.01 584.24 -122.02 583.48 -122.04 582.7 C-122.04 581.71 -122.05 580.71 -122.06 579.69 C-122.08 578.21 -122.08 578.21 -122.1 576.7 C-122 574 -122 574 -121 571 C-120.34 571 -119.68 571 -119 571 C-118.8 569.94 -118.59 568.88 -118.38 567.79 C-118.11 566.4 -117.83 565.01 -117.56 563.62 C-117.43 562.93 -117.29 562.23 -117.15 561.51 C-116.11 556.23 -116.11 556.23 -115 554 C-114.77 551.8 -114.59 549.59 -114.44 547.38 C-114.35 546.19 -114.27 545 -114.18 543.77 C-114.12 542.86 -114.06 541.94 -114 541 C-115.07 540.81 -115.07 540.81 -116.16 540.62 C-119.06 539.99 -121.66 539.05 -124.44 538 C-131.24 535.66 -137.85 535.21 -145 535 C-146.81 541.14 -147.03 544.8 -145 551 C-144.7 554.47 -144.73 557.84 -145.52 561.25 C-146.02 564.12 -146.02 566.82 -145.93 569.72 C-145.53 584.37 -149.3 597.46 -153.59 611.32 C-154.74 615.06 -155.73 618.81 -156.62 622.62 C-157.49 626.29 -158.61 629.56 -160.12 633 C-162.14 637.73 -162.45 642.07 -162.73 647.16 C-163.24 652.53 -165.03 658.19 -169 662 C-170.32 662 -171.64 662 -173 662 C-173.1 662.87 -173.21 663.73 -173.31 664.62 C-174.2 669 -175.46 672.56 -178.77 675.66 C-181.52 677.31 -183.19 677.34 -186.38 677.25 C-187.35 677.23 -188.33 677.2 -189.33 677.18 C-192 677 -192 677 -195.06 676.44 C-198.74 675.89 -201.9 676.52 -205.54 677.23 C-209.36 676.87 -210.57 674.89 -213 672 C-214.79 669.57 -216.46 667.08 -218.12 664.56 C-223.02 657.29 -228.26 650.37 -233.76 643.55 C-234.9 642.12 -236.03 640.69 -237.15 639.26 C-243.49 631.2 -249.95 623.4 -258 617 C-265.17 610.37 -273.28 600.98 -274.32 590.93 C-273.88 585.48 -272.51 580.45 -271.06 575.19 C-270.89 574.56 -270.73 573.94 -270.55 573.3 C-265.99 556.48 -260.99 539.78 -256.06 523.07 C-250.6 504.55 -245.26 485.99 -239.98 467.42 C-224.71 413.76 -224.71 413.76 -217 389 C-216.62 387.79 -216.62 387.79 -216.24 386.55 C-200.7 336.74 -182.98 287.17 -153 244 C-151.88 242.37 -151.88 242.37 -150.74 240.71 C-141.82 227.91 -132.01 215.85 -121.24 204.55 C-118.15 201.03 -116.18 198.37 -115.56 193.69 C-116.36 187 -119.6 182.01 -124 177 C-126.36 175.12 -126.36 175.12 -129.06 173.44 C-130.12 172.75 -131.17 172.07 -132.26 171.36 C-135.01 169.61 -137.78 167.9 -140.55 166.2 C-150.42 160.13 -159.49 153.87 -168 146 C-168.79 145.28 -169.59 144.55 -170.41 143.8 C-184.6 130.26 -194.47 113.53 -203 96 C-201.57 106.18 -199.68 116.24 -197.65 126.31 C-197.3 128.07 -196.95 129.84 -196.61 131.6 C-196.11 134.18 -195.59 136.76 -195.07 139.34 C-194.92 140.12 -194.77 140.9 -194.62 141.71 C-193.15 148.77 -189.7 153.45 -184.81 158.69 C-181.53 162.26 -178.41 165.91 -175.38 169.69 C-172.32 173.47 -169.17 176.97 -165.66 180.33 C-163.91 182.09 -162.38 183.95 -160.81 185.88 C-153.4 194.4 -144.71 199.73 -134 203 C-132.33 203.65 -130.66 204.31 -129 205 C-129 206.32 -129 207.64 -129 209 C-147.91 208.21 -160.68 195.23 -173 182 C-175.34 179.25 -177.61 176.45 -179.87 173.63 C-181.76 171.3 -183.69 169.05 -185.69 166.81 C-193.26 158.2 -197.71 150.41 -200.17 139.2 C-200.48 137.81 -200.48 137.81 -200.79 136.4 C-202.8 127.25 -204.59 118.06 -206.4 108.87 C-206.93 106.16 -207.46 103.45 -208 100.73 C-208.36 98.88 -208.73 97.03 -209.09 95.18 C-209.27 94.26 -209.46 93.33 -209.65 92.37 C-210.58 87.65 -211.5 82.92 -212.41 78.19 C-216.56 46.51 -216.56 46.51 -230.74 19.27 C-233 17 -233 17 -233 13 C-230 12 -230 12 -227.27 13.29 C-226.18 13.94 -225.09 14.6 -223.96 15.27 C-223.37 15.62 -222.77 15.97 -222.16 16.33 C-220.23 17.48 -218.3 18.65 -216.38 19.81 C-215.04 20.61 -213.7 21.4 -212.36 22.2 C-206.98 25.4 -201.61 28.63 -196.25 31.87 C-177.93 42.87 -158.72 52.28 -139.42 61.43 C-123.76 68.85 -108.7 76.8 -94 86 C-93.19 86.51 -92.37 87.02 -91.54 87.54 C-89.18 89.02 -86.84 90.5 -84.5 92 C-83.8 92.44 -83.1 92.89 -82.38 93.35 C-73.67 98.99 -73.67 98.99 -72 104 C-79.1 103.77 -83.71 100.37 -89.5 96.5 C-91.47 95.21 -93.44 93.93 -95.42 92.64 C-96.85 91.7 -96.85 91.7 -98.32 90.74 C-114.97 79.91 -132.58 71.12 -150.5 62.62 C-156.99 59.54 -163.43 56.37 -169.82 53.11 C-171.38 52.31 -172.95 51.52 -174.51 50.73 C-190.13 42.84 -205.1 34.16 -220 25 C-219.65 26.23 -219.3 27.45 -218.93 28.71 C-218.7 29.53 -218.46 30.35 -218.22 31.2 C-217.69 33.06 -217.16 34.92 -216.62 36.78 C-215.14 41.92 -213.7 47.08 -212.32 52.26 C-204.65 80.88 -193.52 108.32 -174 131 C-172.77 132.45 -172.77 132.45 -171.51 133.93 C-161.43 145.53 -149.57 153.37 -136.54 161.31 C-124.38 168.77 -114.52 175.94 -110 190 C-107.56 187.56 -107.38 185.46 -106.61 182.18 C-105.84 179.42 -104.59 176.97 -103.25 174.43 C-101.98 171.95 -100.79 169.44 -99.63 166.9 C-98.41 164.26 -97.17 161.63 -95.94 159 C-95.33 157.71 -94.73 156.42 -94.14 155.12 C-88.08 141.91 -80.08 130.05 -72 118 C-71.17 116.74 -70.33 115.48 -69.5 114.21 C-66.6 109.83 -63.65 105.49 -60.62 101.19 C-46.49 81.06 -33.89 59.99 -22.43 38.24 C-21.77 37.01 -21.12 35.77 -20.47 34.54 C-19.19 32.13 -17.93 29.71 -16.67 27.29 C-12.85 20.05 -8.66 13.38 -3.9 6.75 C-2.37 4.53 -1.11 2.45 0 0 Z M-205 92 C-204 94 -204 94 -204 94 Z M-111 200 C-112.31 201.09 -112.31 201.09 -112.1 203.72 C-112.09 204.82 -112.07 205.93 -112.06 207.06 C-112.05 208.17 -112.04 209.27 -112.04 210.41 C-112.02 211.26 -112.01 212.12 -112 213 C-111.67 213 -111.34 213 -111 213 C-110.67 208.71 -110.34 204.42 -110 200 C-110.33 200 -110.66 200 -111 200 Z M113 207 C113 207.33 113 207.66 113 208 C119.93 208.5 119.93 208.5 127 209 C123.58 206.72 122.32 206.78 118.31 206.88 C117.32 206.89 116.32 206.91 115.3 206.93 C114.54 206.95 113.78 206.98 113 207 Z M97 212 C97.36 212.48 97.73 212.97 98.1 213.47 C99.17 214.89 100.23 216.32 101.3 217.75 C102.32 219.1 103.37 220.44 104.45 221.75 C116.98 237.17 121.95 257.36 126.66 276.2 C126.83 276.89 127 277.57 127.17 278.27 C131.48 295.52 135.23 312.88 138.96 330.26 C139.85 334.4 140.75 338.53 141.64 342.67 C141.82 343.49 142 344.31 142.18 345.15 C143.94 353.29 145.7 361.43 147.47 369.57 C147.83 371.2 148.18 372.83 148.53 374.46 C154.22 400.89 154.22 400.89 161.25 427 C161.66 428.42 162.07 429.84 162.48 431.26 C170.38 459.98 170.38 459.98 190.27 481.05 C198.38 485.16 206.07 487.84 215.18 485.42 C226.67 480.34 232.19 469.88 237 459 C236.01 458.67 235.02 458.34 234 458 C233.34 457.34 232.68 456.68 232 456 C232 457.32 232 458.64 232 460 C229.03 459.67 226.06 459.34 223 459 C222.67 457.68 222.34 456.36 222 455 C221.37 454.93 220.74 454.85 220.09 454.77 C209.68 453.17 204.16 447.92 197.88 439.7 C183.13 418.53 181.62 393.49 180.8 368.46 C180.77 367.64 180.74 366.81 180.7 365.96 C180.65 364.45 180.62 362.94 180.6 361.43 C180.5 358.16 180.32 356.38 178.18 353.84 C177.46 353.24 176.74 352.63 176 352 C162.5 333.09 158.49 313.14 155.44 290.56 C151.95 263.87 151.95 263.87 144.19 238.19 C143.84 237.31 143.5 236.44 143.14 235.54 C142.12 233.02 141.07 230.51 140 228 C139.7 227.29 139.4 226.57 139.1 225.84 C136.26 218.82 136.26 218.82 130.91 213.81 C128.55 213.22 126.43 213.06 124 213 C122.5 212.79 121 212.58 119.5 212.38 C112.03 211.7 104.49 211.92 97 212 Z M140 217 C141.49 221.67 143.08 226.29 144.9 230.84 C145.24 231.68 145.57 232.51 145.91 233.38 C146.58 235.05 147.26 236.72 147.95 238.39 C154.63 255.34 156.44 273.78 158.85 291.7 C161.63 312.14 165.64 332.5 179 349 C179.33 349 179.66 349 180 349 C184.78 298.57 184.78 298.57 180.49 248.38 C180.15 246.71 179.83 245.04 179.53 243.36 C179.05 240.71 178.5 238.07 177.94 235.44 C177.72 234.25 177.72 234.25 177.51 233.04 C176.68 229.62 176 227.64 172.97 225.7 C170.34 224.61 167.73 223.78 165 223 C164.1 222.72 163.21 222.43 162.28 222.14 C159.57 221.3 156.86 220.52 154.12 219.75 C153.2 219.48 152.28 219.21 151.33 218.94 C150.44 218.68 149.55 218.43 148.63 218.17 C147.44 217.83 147.44 217.83 146.22 217.49 C143.73 216.86 143.73 216.86 140 217 Z M180 229 C180.15 229.8 180.29 230.59 180.44 231.41 C181.11 235.07 181.77 238.72 182.44 242.38 C182.67 243.63 182.9 244.88 183.13 246.17 C185.27 258.01 186.19 269.28 186.19 281.31 C186.19 281.99 186.19 282.67 186.19 283.37 C186.19 296.57 185.56 309.71 184.71 322.88 C184.48 326.51 184.28 330.13 184.11 333.75 C184.03 335.31 183.95 336.87 183.86 338.44 C183.73 340.89 183.64 343.34 183.56 345.79 C183.52 346.54 183.47 347.29 183.42 348.06 C183.36 350.96 183.4 353.27 185.29 355.57 C190.62 360.09 194.62 361.46 201.46 361.32 C206.09 360.73 209.07 358.49 212.73 355.66 C214.23 354.06 214.23 354.06 213.99 351.79 C213.81 350.93 213.64 350.08 213.45 349.2 C213.27 348.24 213.08 347.28 212.89 346.29 C212.68 345.29 212.47 344.28 212.25 343.25 C208.28 323.86 208.92 304.5 209.1 284.81 C210.38 261.67 210.38 261.67 204 240 C201.6 238.35 199.46 237.08 196.88 235.81 C196.25 235.48 195.62 235.15 194.98 234.81 C190.15 232.35 185.18 230.6 180 229 Z M211 245 C211.07 245.98 211.15 246.96 211.22 247.97 C211.86 257.37 212.07 266.73 212.03 276.16 C212.02 277.32 212.02 278.48 212.01 279.68 C211.98 284.5 211.95 289.31 211.9 294.13 C211.75 312.1 212.35 329.36 216 347 C217.49 346.5 217.49 346.5 219 346 C220.17 343.53 221.09 341.21 221.94 338.62 C222.2 337.84 222.45 337.06 222.72 336.26 C226.61 323.63 234.3 297.6 228 285 C225.47 284.34 225.47 284.34 223 284 C222.67 280.48 222.86 278.31 224.31 275.06 C227.6 272.54 228.72 272.82 232.75 273.19 C234.5 273.43 236.26 273.7 238 274 C236.67 269.36 234.77 265.94 232 262 C231.64 261.24 231.28 260.49 230.91 259.71 C228.1 255.72 224.38 253.4 220.38 250.69 C219.59 250.14 218.8 249.59 217.98 249.02 C214.75 246.35 214.75 246.35 211 245 Z M-103 267 C-102 269 -102 269 -102 269 Z M-107 273 C-107.87 274.13 -108.7 275.29 -109.5 276.46 C-110 277.18 -110.49 277.9 -111 278.64 C-111.77 279.78 -111.77 279.78 -112.56 280.94 C-113.08 281.69 -113.6 282.45 -114.14 283.22 C-116.72 286.37 -116.72 286.37 -118 290 C-117.2 290.12 -116.41 290.24 -115.59 290.37 C-114.53 290.53 -113.47 290.7 -112.38 290.88 C-111.33 291.04 -110.29 291.2 -109.21 291.37 C-106 292 -106 292 -100 294 C-101.98 287.07 -103.96 280.14 -106 273 C-106.33 273 -106.66 273 -107 273 Z M230 278 C230.33 278.66 230.66 279.32 231 280 C232.9 280.47 232.9 280.47 235.06 280.62 C236.36 280.75 237.66 280.87 239 281 C239 280.34 239 279.68 239 279 C236.03 278.67 233.06 278.34 230 278 Z M232 285 C232.03 285.89 232.07 286.78 232.11 287.69 C232.53 307.9 230.98 332.56 220.07 350.09 C217.28 357.64 221.03 366.66 223.12 374.06 C223.44 375.16 223.75 376.26 224.07 377.4 C227.87 390.46 232.9 403.92 241 415 C244.29 416.1 245.71 415.8 249 415 C248.28 410.48 246.72 406.34 245.12 402.06 C239.8 387.36 237.85 372.91 237.83 357.31 C237.83 356.1 237.83 354.88 237.82 353.63 C237.82 351.06 237.81 348.49 237.81 345.91 C237.81 342.07 237.79 338.22 237.78 334.38 C237.74 318.49 238.43 302.81 240 287 C237.09 285.74 235.2 285 232 285 Z M-129.94 303.06 C-133.46 307.63 -135.16 310.79 -134.56 316.58 C-133.21 322.43 -131.06 328.55 -126.02 332.26 C-119.33 334.71 -110.42 332.4 -103.94 329.95 C-99.89 327.97 -96.92 325.58 -94.62 321.62 C-93.03 314.91 -94.01 308.2 -97 302 C-99.78 299.94 -99.78 299.94 -103 299 C-103.89 298.46 -104.77 297.93 -105.69 297.38 C-115.12 291.77 -123.31 295.72 -129.94 303.06 Z M283 311 C284.23 319.69 286.28 327.9 288.75 336.31 C297.38 366.74 304.19 399.58 304.12 431.31 C304.13 433.26 304.13 433.26 304.13 435.24 C304.07 439.19 303.78 443.11 303.49 447.05 C302.89 455.67 302.93 464.26 303.02 472.9 C303.14 485.71 303.14 485.71 302.32 491.04 C301.96 495.54 302.66 497.59 304.81 501.5 C305.36 502.52 305.9 503.54 306.46 504.59 C307.78 507.1 307.78 507.1 310 508 C311.32 507.67 312.64 507.34 314 507 C314.66 509.97 315.32 512.94 316 516 C318.92 513.08 320.63 510.48 322.69 506.94 C323.31 505.87 323.93 504.81 324.57 503.71 C326.15 501.22 326.15 501.22 326 499 C325.5 499.16 325.01 499.33 324.5 499.5 C320.97 500.21 317.6 500.06 314 500 C313.67 497.03 313.34 494.06 313 491 C313.66 490.67 314.32 490.34 315 490 C314.86 489.25 314.71 488.5 314.56 487.73 C314.38 486.7 314.19 485.68 314 484.62 C313.81 483.63 313.63 482.63 313.44 481.6 C312.34 472.54 313.3 463.66 314.31 454.62 C314.51 452.77 314.51 452.77 314.72 450.88 C315.41 444.61 316.22 438.39 317.29 432.17 C320.97 410.54 319.97 387.49 314.88 366.15 C314.1 362.82 313.95 360.05 314.31 356.62 C314.5 345.66 304.64 336.9 298 329 C293.58 323.56 289.25 318.07 285.13 312.4 C284.76 311.94 284.38 311.48 284 311 C283.67 311 283.34 311 283 311 Z M-139 315 C-140.74 316.98 -142.44 318.97 -144.12 321 C-145.13 322.2 -146.13 323.39 -147.13 324.59 C-147.62 325.17 -148.11 325.76 -148.61 326.36 C-150.92 329.08 -153.28 331.75 -155.66 334.41 C-157.2 336.17 -157.2 336.17 -159 339 C-152.95 339.27 -147.47 338.26 -141.56 337 C-140.64 336.81 -139.72 336.62 -138.77 336.42 C-136.51 335.95 -134.25 335.48 -132 335 C-133.11 331.63 -134.25 328.3 -135.56 325 C-136.82 321.69 -137.56 318.52 -138 315 C-138.33 315 -138.66 315 -139 315 Z M-14 317 C-14 319.31 -14 321.62 -14 324 C-9.55 323.5 -9.55 323.5 -5 323 C-5 321.02 -5 319.04 -5 317 C-9.62 315.96 -9.62 315.96 -14 317 Z M-74 319 C-73.34 320.98 -72.68 322.96 -72 325 C-70.02 324.67 -68.04 324.34 -66 324 C-66 321.69 -66 319.38 -66 317 C-68.64 317 -71.49 318.27 -74 319 Z M64 320 C63.67 321.65 63.34 323.3 63 325 C64.32 325.99 65.64 326.98 67 328 C68.32 326.02 69.64 324.04 71 322 C70.34 321.01 69.68 320.02 69 319 C66.79 318.89 66.79 318.89 64 320 Z M-27.69 330.56 C-29.52 333.97 -28.78 336.3 -28 340 C-26.68 339.67 -25.36 339.34 -24 339 C-24 335.7 -24 332.4 -24 329 C-26.14 328.77 -26.14 328.77 -27.69 330.56 Z M30 334 C29.67 334.99 29.34 335.98 29 337 C29.33 337.66 29.66 338.32 30 339 C31.65 338.67 33.3 338.34 35 338 C34.67 336.68 34.34 335.36 34 334 C32.68 334 31.36 334 30 334 Z M317 357 C317.55 360.89 318.12 364.78 318.72 368.67 C318.91 369.92 318.91 369.92 319.11 371.19 C319.37 372.88 319.63 374.57 319.89 376.27 C323.78 401.71 321.75 425.86 317.86 451.1 C316 463.39 314.23 475.24 319 487 C321.31 486.67 323.62 486.34 326 486 C325.98 486.63 325.95 487.25 325.93 487.9 C325.91 488.72 325.89 489.53 325.88 490.38 C325.85 491.19 325.83 492 325.8 492.84 C325.79 495.21 325.79 495.21 328 497 C336.01 480.78 339.48 466.98 341 449 C341.25 446.17 341.5 443.34 341.75 440.51 C341.92 438.63 342.07 436.74 342.22 434.85 C342.55 430.83 342.97 427.12 343.96 423.19 C349.09 402.56 329.45 375.8 319.06 358.52 C318.71 358.02 318.36 357.52 318 357 C317.67 357 317.34 357 317 357 Z M72 378 C72.33 378.66 72.66 379.32 73 380 C73.33 379.34 73.66 378.68 74 378 C73.34 378 72.68 378 72 378 Z M249 415 C249.33 416.65 249.66 418.3 250 420 C250.33 418.68 250.66 417.36 251 416 C250.34 415.67 249.68 415.34 249 415 Z M256 419 C255.34 421.53 255.34 421.53 255 424 C255.99 424 256.98 424 258 424 C258.33 422.02 258.66 420.04 259 418 C257.78 417.93 257.78 417.93 256 419 Z M239 423 C239.33 424.32 239.66 425.64 240 427 C241.32 427 242.64 427 244 427 C244.66 426.34 245.32 425.68 246 425 C246 423.68 246 422.36 246 421 C243.35 421 241.42 421.98 239 423 Z M226 449 C225.67 450.65 225.34 452.3 225 454 C226.32 454.33 227.64 454.66 229 455 C229 453.02 229 451.04 229 449 C228.01 449 227.02 449 226 449 Z M240 452 C239.01 452.66 238.02 453.32 237 454 C239.35 455.43 240.48 456.09 243.25 455.62 C243.83 455.42 244.4 455.21 245 455 C243.35 454.01 241.7 453.02 240 452 Z M317 494 C317 494.66 317 495.32 317 496 C318.65 495.67 320.3 495.34 322 495 C322 494.01 322 493.02 322 492 C319.68 491.82 319.68 491.82 317 494 Z M306 515 C306 515.66 306 516.32 306 517 C307.65 516.67 309.3 516.34 311 516 C311 515.01 311 514.02 311 513 C308.68 512.82 308.68 512.82 306 515 Z M-152 532 C-152.33 535.3 -152.66 538.6 -153 542 C-151.36 538.71 -150.59 536.52 -150 533 C-150.66 532.67 -151.32 532.34 -152 532 Z M-110 545 C-110 547.31 -110 549.62 -110 552 C-109.34 552 -108.68 552 -108 552 C-108.33 549.69 -108.66 547.38 -109 545 C-109.33 545 -109.66 545 -110 545 Z M-154 547 C-154.2 553.08 -154.2 553.08 -153 559 C-152.01 559 -151.02 559 -150 559 C-149.06 553.95 -149.06 553.95 -150 549 C-150.66 549 -151.32 549 -152 549 C-152 548.34 -152 547.68 -152 547 C-152.66 547 -153.32 547 -154 547 Z M-111.56 558.44 C-113.64 562.14 -113.74 565.82 -114 570 C-113.01 570 -112.02 570 -111 570 C-110.49 568.59 -109.99 567.17 -109.5 565.75 C-109.22 564.96 -108.94 564.17 -108.66 563.36 C-107.82 560.77 -107.82 560.77 -108 557 C-110.11 556.77 -110.11 556.77 -111.56 558.44 Z M-153 564 C-153 569.28 -153 574.56 -153 580 C-152.01 579.67 -151.02 579.34 -150 579 C-148.72 571.78 -148.72 571.78 -151 565 C-151.66 564.67 -152.32 564.34 -153 564 Z M-118 576 C-118 579.96 -118 583.92 -118 588 C-117.01 588.5 -117.01 588.5 -116 589 C-115.49 587.42 -114.99 585.83 -114.5 584.25 C-114.22 583.37 -113.94 582.49 -113.66 581.58 C-112.84 578.8 -112.84 578.8 -113 575 C-115.93 574.78 -115.93 574.78 -118 576 Z M241 581 C241 582.98 241 584.96 241 587 C245.46 586.5 245.46 586.5 250 586 C250 584.02 250 582.04 250 580 C246.73 580 244.15 580.3 241 581 Z M-154 585 C-155.15 588.42 -156.29 591.83 -157.44 595.25 C-157.76 596.22 -158.09 597.19 -158.42 598.18 C-158.74 599.12 -159.05 600.05 -159.37 601.02 C-159.66 601.87 -159.95 602.73 -160.24 603.62 C-160.92 605.73 -161.49 607.84 -162 610 C-160.04 609.76 -160.04 609.76 -158 609 C-156.77 606.3 -155.86 603.82 -155 601 C-154.72 600.15 -154.44 599.3 -154.15 598.42 C-152.77 594.12 -151.83 590.56 -152 586 C-152.66 585.67 -153.32 585.34 -154 585 Z M-122 592 C-123.65 597.94 -125.3 603.88 -127 610 C-121.81 608.06 -121.81 608.06 -119 604 C-118.22 601.43 -118.22 601.43 -117.81 598.75 C-117.57 597.41 -117.57 597.41 -117.33 596.05 C-117.22 595.37 -117.11 594.7 -117 594 C-119.48 593.01 -119.48 593.01 -122 592 Z M314 595 C313.67 595.99 313.34 596.98 313 598 C312.34 598 311.68 598 311 598 C310.67 598.99 310.34 599.98 310 601 C311.39 602.21 311.39 602.21 312.81 603.44 C313.33 603.89 313.86 604.34 314.39 604.81 C316.11 606.21 316.11 606.21 319 607 C319.97 604.85 319.97 604.85 320 602 C318.62 599.43 316.96 597.16 315 595 C314.67 595 314.34 595 314 595 Z M-127 614.44 C-127.91 614.7 -128.81 614.97 -129.75 615.25 C-131.94 615.8 -131.94 615.8 -133 617 C-133.21 622.6 -133.21 622.6 -132 628 C-129.24 627.92 -127.47 627.39 -125.33 625.62 C-122.23 622.33 -121.07 620.69 -120.62 616.06 C-120.75 615.05 -120.87 614.04 -121 613 C-123.04 613 -125.07 613.86 -127 614.44 Z M-166 616 C-167.5 618.64 -169 621.29 -170.5 623.94 C-170.93 624.69 -171.36 625.45 -171.8 626.22 C-172.41 627.3 -172.41 627.3 -173.03 628.4 C-173.41 629.07 -173.79 629.73 -174.17 630.42 C-175.08 631.85 -175.08 631.85 -175 633 C-172.03 633.33 -169.06 633.66 -166 634 C-161.76 625.36 -161.76 625.36 -160 616 C-161.98 616 -163.96 616 -166 616 Z M-126.62 631.25 C-130.36 633.62 -134.15 635.83 -138 638 C-137.49 640.17 -137 642 -136 644 C-128.33 642.87 -128.33 642.87 -122 639 C-121.59 635.63 -121.71 632.38 -122 629 C-123.79 629 -125.16 630.31 -126.62 631.25 Z M-179 638 C-179.82 639.58 -180.63 641.16 -181.44 642.75 C-181.89 643.63 -182.34 644.51 -182.81 645.42 C-183.83 647.64 -184.52 649.61 -185 652 C-183.26 652.87 -181.51 653.72 -179.75 654.56 C-178.78 655.04 -177.8 655.51 -176.8 656 C-174.14 657.15 -174.14 657.15 -171.75 656.88 C-169.45 655.72 -169.09 654.79 -168.25 652.38 C-166.98 648.49 -166.52 645.1 -167 641 C-168.17 639.22 -168.17 639.22 -170 638 C-172.28 637.64 -172.28 637.64 -174.69 637.81 C-175.5 637.84 -176.3 637.87 -177.14 637.89 C-177.75 637.93 -178.37 637.96 -179 638 Z M-129.46 647.13 C-134.52 648.86 -139.78 649.88 -145 651 C-144.67 653.31 -144.34 655.62 -144 658 C-138.87 657.54 -134.72 656.63 -129.96 654.7 C-127 653.64 -124.12 653.33 -121 653 C-121 650.36 -121 647.72 -121 645 C-124.27 645 -126.46 645.95 -129.46 647.13 Z M-188 656 C-189 657.96 -190 659.91 -191 661.88 C-191.56 662.97 -192.11 664.06 -192.69 665.18 C-194.14 667.78 -194.14 667.78 -194 670 C-190.35 672.34 -187.26 672.46 -183 672 C-178.86 669.2 -178.09 665.73 -177 661 C-180.63 659.35 -184.26 657.7 -188 656 Z M-131.12 659.94 C-136.5 661.64 -141.39 662.62 -147 663 C-146.34 664.98 -145.68 666.96 -145 669 C-138.32 668.07 -131.66 667.03 -125 666 C-124.01 663.36 -123.02 660.72 -122 658 C-125.44 658 -127.86 658.85 -131.12 659.94 Z M-137.5 672.31 C-138.46 672.56 -139.42 672.8 -140.41 673.05 C-143.03 674.01 -144.24 674.88 -146 677 C-145.34 678.32 -144.68 679.64 -144 681 C-142.06 680.86 -140.12 680.71 -138.19 680.56 C-137.11 680.48 -136.03 680.4 -134.92 680.32 C-131.94 680.1 -131.94 680.1 -129 679 C-129 676.36 -129 673.72 -129 671 C-132.1 671 -134.5 671.53 -137.5 672.31 Z M412 722 C409.72 724.82 409.72 724.82 410 728 C409.34 728 408.68 728 408 728 C408.33 728.99 408.66 729.98 409 731 C411.02 731.73 411.02 731.73 413 732 C415.36 727.74 415.36 727.74 416 723 C414.68 722.67 413.36 722.34 412 722 Z M327.96 726.78 C327.25 727.16 326.54 727.54 325.81 727.94 C325.1 728.32 324.38 728.7 323.64 729.09 C322.83 729.54 322.83 729.54 322 730 C322.66 732.31 323.32 734.62 324 737 C327.56 736.39 330.68 735.42 334 734 C333.67 731.69 333.34 729.38 333 727 C330.15 725.7 330.15 725.7 327.96 726.78 Z " fill="#000000" transform="translate(566,2)"/>
<path d="M0 0 C0.99 0 1.98 0 3 0 C3.11 0.58 3.23 1.16 3.35 1.76 C5.96 15 8.66 28.22 11.45 41.43 C11.75 42.86 12.05 44.3 12.35 45.73 C13.59 51.59 14.82 57.46 16.07 63.31 C22.12 91.83 22.12 91.83 23.91 102.98 C24.02 103.68 24.13 104.38 24.25 105.1 C27.12 124.18 27.12 124.18 23.66 130.41 C19.27 134.61 11.9 133.19 6.25 133.19 C4.38 133.19 4.38 133.19 2.48 133.19 C-5.73 133.13 -13.88 132.82 -22.06 132.12 C-23.02 132.05 -23.99 131.97 -24.98 131.89 C-31.61 131.26 -31.61 131.26 -35 129 C-34.67 128.01 -34.34 127.02 -34 126 C-27.77 125.89 -21.61 126.09 -15.39 126.47 C-14.62 126.52 -13.85 126.57 -13.05 126.61 C-9.82 126.81 -6.59 127.01 -3.36 127.22 C-0.98 127.37 1.41 127.52 3.79 127.66 C4.51 127.71 5.23 127.76 5.97 127.81 C10.45 128.07 14.59 127.84 19 127 C20.85 125.15 20.18 122.22 20.19 119.74 C20.14 112.69 19.27 106.08 17.93 99.17 C17.7 97.98 17.48 96.79 17.25 95.57 C14.58 81.45 11.62 67.39 8.63 53.34 C7.88 49.78 7.13 46.23 6.38 42.67 C4.92 35.78 3.46 28.89 2 22 C1.62 23.22 1.25 24.44 0.86 25.69 C-2.12 35.31 -5.28 44.77 -9 54.12 C-14.15 67.18 -18.9 80.32 -23.07 93.72 C-23.32 94.52 -23.57 95.33 -23.83 96.16 C-24.87 99.45 -25.9 102.75 -26.9 106.05 C-27.65 108.51 -28.42 110.96 -29.2 113.41 C-29.53 114.53 -29.53 114.53 -29.87 115.68 C-30.54 117.76 -30.54 117.76 -32 121 C-34.18 121.97 -34.18 121.97 -36 122 C-35.47 114.71 -33.75 108.35 -31.44 101.44 C-30.9 99.8 -30.9 99.8 -30.35 98.13 C-29.61 95.87 -28.86 93.6 -28.1 91.34 C-27.07 88.2 -26.05 85.06 -25.04 81.91 C-21.31 70.37 -17.11 59.12 -12.52 47.9 C-9.07 39.4 -6.29 30.88 -4 22 C-3.77 21.14 -3.54 20.28 -3.3 19.39 C-1.98 14.11 -1.58 8.83 -1.25 3.41 C-1 1 -1 1 0 0 Z " fill="#000000" transform="translate(563,80)"/>
<path d="M0 0 C3.05 -0.31 4.53 -0.33 7.07 1.48 C34.11 29.75 34.11 29.75 35.31 44.94 C35.25 47.71 35.13 48.79 33.62 51.19 C24.77 57.3 14.89 61.01 4 60 C1.11 59.24 -1.25 58.28 -4 57 C-5.06 53.82 -5.13 51.52 -5.12 48.19 C-5.13 47.17 -5.13 46.15 -5.13 45.11 C-5 42 -5 42 -4.5 39.22 C-3.98 35.88 -3.84 32.7 -3.79 29.32 C-3.76 28.06 -3.73 26.8 -3.7 25.51 C-3.65 22.88 -3.61 20.26 -3.57 17.63 C-3.41 11.06 -3.26 5.78 0 0 Z M2 5 C0.96 8.45 0.82 11.71 0.72 15.3 C0.68 16.53 0.64 17.75 0.61 19.01 C0.57 20.29 0.54 21.56 0.5 22.88 C0.43 25.39 0.36 27.91 0.28 30.43 C0.25 31.55 0.22 32.66 0.19 33.81 C0 36.94 -0.45 39.92 -1 43 C-1.08 44.58 -1.13 46.17 -1.12 47.75 C-1.13 48.51 -1.13 49.27 -1.13 50.05 C-1.12 52.08 -1.12 52.08 0 54 C7.14 56.86 15.19 54.71 22 52 C27.27 49.54 27.27 49.54 30.92 45.24 C31.36 32.79 12.87 15.63 4.93 6.95 C3.98 5.98 3.98 5.98 3 5 C2.67 5 2.34 5 2 5 Z " fill="#000000" transform="translate(338,544)"/>
<path d="M0 0 C0.99 0.5 0.99 0.5 2 1 C1.67 1.66 1.34 2.32 1 3 C0.67 2.01 0.34 1.02 0 0 Z " fill="#000000" transform="translate(375,704)"/>
<path d="" fill="#000000" transform="translate(0,0)"/>
</svg>
