<?xml version="1.0" encoding="UTF-8"?>
<svg width="256" height="256" viewBox="0 0 256 256" fill="none" xmlns="http://www.w3.org/2000/svg" role="img" aria-labelledby="title desc">
  <title id="title">Ballerina Horse Head Logo</title>
  <desc id="desc">Silhouette kepala kuda dengan surai seperti kabel berwarna putih di atas badan gelap.</desc>

  <!-- Warna dasar gelap (hitam kebiruan). Ganti ke #000 bila ingin benar-benar hitam -->
  <defs>
    <clipPath id="clip">
      <path d="M42 184c3 9 12 21 22 24 11 3 29-5 38-9 3-1 5-2 7-2 21 0 54-1 77-9 6-2 9-10 10-16 4-22-3-44-9-61-3-7-8-13-14-18l-4-3c-1-6-1-11-1-16 0-3-1-6-2-8-2-3-5-6-9-8-7-4-19-8-28-8-3 0-5 2-7 4-2 3-4 6-5 9-1 1-2 1-3 1-5 0-13-2-19-3-4-1-9 2-10 5-2 6-4 15-4 22 0 2 0 4-1 5-4 5-10 14-13 19-5 8-9 17-12 26-6 16-10 32-6 46Z"/>
    </clipPath>
  </defs>

  <!-- Siluet kepala -->
  <path fill="#0D1522" d="M42 184c3 9 12 21 22 24 11 3 29-5 38-9 3-1 5-2 7-2 21 0 54-1 77-9 6-2 9-10 10-16 4-22-3-44-9-61-3-7-8-13-14-18l-4-3c-1-6-1-11-1-16 0-3-1-6-2-8-2-3-5-6-9-8-7-4-19-8-28-8-3 0-5 2-7 4-2 3-4 6-5 9-1 1-2 1-3 1-5 0-13-2-19-3-4-1-9 2-10 5-2 6-4 15-4 22 0 2 0 4-1 5-4 5-10 14-13 19-5 8-9 17-12 26-6 16-10 32-6 46Z"/>

  <!-- Telinga -->
  <path fill="#0D1522" d="M148 53c3 10 3 22 2 28 8 3 16 7 20 10-1-13-1-28 3-38 1-3 1-6-1-8-3-3-12-6-18-7-4 0-7 7-6 15Z"/>
  <path fill="#0D1522" d="M113 54c-1 8-2 18-1 24-6-2-14-3-21-5 0-9 2-20 5-26 2-3 6-5 9-4 5 1 8 5 8 11Z"/>

  <!-- Mata -->
  <path fill="#FFFFFF" d="M97 123c7-10 23-16 31-12 5 3 0 12-10 19-9 6-23 6-27 1-1-2 1-5 6-8Z"/>
  <path fill="#8CA0B3" d="M105 127c6-4 12-8 16-9-3 6-8 11-14 14-6 3-12 3-13 0 3-2 7-4 11-5Z"/>

  <!-- Hidung & mulut (potongan) -->
  <path fill="#0A111C" d="M62 170c6 11 20 22 26 28-10 5-21 9-29 7-7-2-14-10-17-18 4-8 13-14 20-17Z"/>

  <!-- Area surai untuk klip -->
  <g clip-path="url(#clip)">
    <!-- Surai: garis seperti kabel -->
    <g stroke="#FFFFFF" stroke-width="8" stroke-linecap="round" stroke-linejoin="round" fill="none">
      <path d="M116 85c-10 18-12 33-1 44"/>
      <path d="M131 87c-7 14-10 28-4 39"/>
      <path d="M146 92c-6 13-9 31 3 45"/>
      <path d="M159 96c-8 17-9 37 9 53"/>
      <path d="M173 103c-7 18-3 41 17 58"/>
      <path d="M184 111c-6 18 3 41 24 59"/>
      <path d="M195 122c-3 18 8 39 31 54"/>
    </g>

    <!-- ujung kabel kecil (kotak) -->
    <g fill="#FFFFFF">
      <rect x="108" y="120" width="8" height="8" rx="1"/>
      <rect x="125" y="129" width="8" height="8" rx="1"/>
      <rect x="141" y="142" width="8" height="8" rx="1"/>
      <rect x="160" y="156" width="8" height="8" rx="1"/>
      <rect x="180" y="168" width="8" height="8" rx="1"/>
      <rect x="200" y="178" width="8" height="8" rx="1"/>
      <rect x="219" y="188" width="8" height="8" rx="1"/>
    </g>
  </g>

  <!-- Garis potongan di antara pipi & leher -->
  <path d="M94 165c10-8 18-12 26-15" stroke="#0A111C" stroke-width="6" stroke-linecap="round"/>

</svg>
