<svg xmlns="http://www.w3.org/2000/svg" viewBox="0 0 64 64">
  <style>
    :root { --stroke: #0a0a0a; }
    @media (prefers-color-scheme: dark) { :root { --stroke: #ffffff; } }
  </style>

  <g fill="none" stroke="var(--stroke)" stroke-width="3" stroke-linecap="round" stroke-linejoin="round">
    <!-- Wings -->
    <path d="M32 28 20 20 6 18 10 26 22 30z" />
    <path d="M32 28 44 20 58 18 54 26 42 30z" />
    <path d="M28 26 18 22 10 21" />
    <path d="M29 28 19 26 12 24" />
    <path d="M36 26 46 22 54 21" />
    <path d="M35 28 45 26 52 24" />

    <!-- Circuit lines -->
    <path d="M32 28v22" />
    <path d="M22 30 20 36 18 40" />
    <path d="M26 32v6" />
    <path d="M42 30 44 36 46 40" />
    <path d="M38 32v6" />
  </g>

  <!-- Nodes -->
  <g fill="none" stroke="#ff0000" stroke-width="3">
    <circle cx="18" cy="40" r="2.7" />
    <circle cx="26" cy="38" r="2.7" />
    <circle cx="38" cy="38" r="2.7" />
    <circle cx="46" cy="40" r="2.7" />
    <circle cx="32" cy="50" r="3.2" />
  </g>
</svg>
